<svg width="75" height="75" viewBox="0 0 75 75" fill="none" xmlns="http://www.w3.org/2000/svg">
<g clip-path="url(#clip0_601_77)">
<path d="M0 16C0 7.16344 7.16344 0 16 0H59C67.8366 0 75 7.16344 75 16V59C75 67.8366 67.8366 75 59 75H16C7.16344 75 0 67.8366 0 59V16Z" fill="#EBFF00"/>
<circle cx="22" cy="75" r="41" fill="#00FF29"/>
<circle cx="56" cy="49" r="30" fill="#4700D8"/>
<circle cx="22" cy="15" r="30" fill="#FF01F5"/>
<path d="M35.7368 35.0449C35.6147 32.5493 34.6246 30.6233 32.8207 29.3484C27.8837 25.8491 18.4166 28.6024 18.0097 28.7245L18.7149 31.098C21.1156 30.3792 28.0871 29.0364 31.383 31.3693C32.563 32.2102 33.1733 33.4445 33.2547 35.167C33.4175 38.4628 31.4644 40.3074 29.4028 41.3518C25.8356 37.6897 22.2414 37.2422 20.1391 37.8525C18.0232 38.4764 16.789 40.1989 17.1416 42.0435C17.6706 44.7426 21.8209 45.5022 25.4694 45.0681C26.5409 44.9325 27.6531 44.7019 28.7246 44.3222C30.0945 46.0447 31.4779 48.4047 32.7257 51.6056L35.0315 50.6969C33.7972 47.5773 32.4409 45.1495 31.0439 43.2914C33.8379 41.6909 35.9267 39.0325 35.7368 35.0449ZM25.171 42.5996C21.7395 43.0065 19.6644 42.0571 19.5694 41.5688C19.4474 40.9313 20.112 40.4431 20.8172 40.2396C21.1156 40.1582 21.4547 40.104 21.848 40.104C23.1366 40.104 24.9133 40.6601 26.7986 42.3012C26.0798 42.464 25.483 42.5589 25.171 42.5996Z" fill="white"/>
<path d="M54.861 37.8524C52.7451 37.242 49.1644 37.6896 45.5973 41.3517C43.5357 40.3209 41.5826 38.4627 41.7453 35.1669C41.8267 33.4443 42.4506 32.2101 43.6171 31.3692C46.8994 29.0363 53.8709 30.3791 56.2851 31.0979L56.6378 29.9043L56.9904 28.7108C56.5835 28.5887 47.1164 25.8354 42.1794 29.3347C40.3619 30.6232 39.3853 32.5356 39.2633 35.0312C39.0734 39.0188 41.1486 41.6772 43.9426 43.2641C42.5456 45.1358 41.1757 47.5501 39.955 50.6696L42.2607 51.5784C43.5221 48.391 44.892 46.031 46.2619 44.2949C47.3334 44.6611 48.4456 44.9053 49.5171 45.0409C53.1656 45.4749 57.3159 44.7289 57.8449 42.0163C58.2111 40.1853 56.9768 38.4627 54.861 37.8524ZM55.4171 41.5687C55.3221 42.057 53.247 43.02 49.8155 42.5995C49.5035 42.5588 48.9067 42.4775 48.1743 42.2876C50.6293 40.1581 52.8672 39.8597 54.1557 40.226C54.8745 40.4294 55.5391 40.9312 55.4171 41.5687Z" fill="white"/>
<path d="M37.5 8C21.2377 8 8 21.2377 8 37.5C8 53.7623 21.2377 67 37.5 67C53.7623 67 67 53.7623 67 37.5C67 21.2377 53.7623 8 37.5 8ZM37.5 64.5179C22.6076 64.5179 10.4821 52.3924 10.4821 37.5C10.4821 22.6076 22.594 10.4821 37.5 10.4821C52.406 10.4821 64.5179 22.6076 64.5179 37.5C64.5179 52.3924 52.3924 64.5179 37.5 64.5179Z" fill="white"/>
</g>
<defs>
<clipPath id="clip0_601_77">
<path d="M0 16C0 7.16344 7.16344 0 16 0H59C67.8366 0 75 7.16344 75 16V59C75 67.8366 67.8366 75 59 75H16C7.16344 75 0 67.8366 0 59V16Z" fill="white"/>
</clipPath>
</defs>
</svg>
